<svg id="レイヤー_1" data-name="レイヤー 1" xmlns="http://www.w3.org/2000/svg" width="646" height="98" viewBox="0 0 646 98"><title>oc2018_logo-w_02</title><polyline points="23.12 13.23 16.15 13.23 16.15 39 6.97 39 6.97 13.23 0 13.23 0 5.21 23.12 5.21 23.12 13.23"/><path d="M52.65,39H44.4V36.31a10.4,10.4,0,0,1-3.75,2.47,11.81,11.81,0,0,1-4.37.84,11.78,11.78,0,0,1-9.48-4.1,15.09,15.09,0,0,1-3.22-10,14.45,14.45,0,0,1,3.71-9.88,12.15,12.15,0,0,1,9.44-4.32,11.29,11.29,0,0,1,7.81,3.31V11.87h8.12V39M44.8,25.63A6.72,6.72,0,0,0,43,20.87a6,6,0,0,0-4.63-1.94,6.29,6.29,0,0,0-4.63,1.81,6.52,6.52,0,0,0-1.81,4.68,7.22,7.22,0,0,0,1.63,4.81,5.66,5.66,0,0,0,4.54,2,6.56,6.56,0,0,0,6.7-6.62Z"/><path d="M98.19,39H89.94V23.16A5.27,5.27,0,0,0,89.19,20a3.57,3.57,0,0,0-3-1.15,3.91,3.91,0,0,0-3.35,1.63,6.1,6.1,0,0,0-1.06,3.66V39H73.48V23.07a5.35,5.35,0,0,0-.7-3.09A3.26,3.26,0,0,0,70,18.89a3.82,3.82,0,0,0-3.36,1.59,6,6,0,0,0-1.06,3.66V39H57.29V11.87h8.07V15.4a10,10,0,0,1,3.4-2.87A8.56,8.56,0,0,1,73,11.34q5.38,0,7.63,4.32a16.58,16.58,0,0,1,3.88-3.26,10.21,10.21,0,0,1,5-1.06,8.38,8.38,0,0,1,6.35,2.6,9.14,9.14,0,0,1,2.34,6.48V39"/><path d="M130.57,39h-8.25V36.31a10.4,10.4,0,0,1-3.75,2.47,12.65,12.65,0,0,1-13.85-3.26,15.1,15.1,0,0,1-3.22-10,14.45,14.45,0,0,1,3.71-9.88,12.15,12.15,0,0,1,9.44-4.32,11.29,11.29,0,0,1,7.81,3.31V11.87h8.12V39m-7.85-13.33a6.72,6.72,0,0,0-1.81-4.76,6,6,0,0,0-4.63-1.94,6.29,6.29,0,0,0-4.63,1.81,6.52,6.52,0,0,0-1.81,4.68,7.21,7.21,0,0,0,1.63,4.81,5.67,5.67,0,0,0,4.55,2,6.56,6.56,0,0,0,6.71-6.62Z"/><path d="M164.41,25.46a15.42,15.42,0,0,1-3.26,9.84A11.29,11.29,0,0,1,152,39.62a12,12,0,0,1-8.74-3.49V39h-8V5.16h8.16v9.26a9.22,9.22,0,0,1,1.78-1.23,19.54,19.54,0,0,1,2.14-1,11.83,11.83,0,0,1,4.41-.88A11.54,11.54,0,0,1,161,15.62a14.82,14.82,0,0,1,3.4,9.84m-8.16-.17a6.33,6.33,0,0,0-6.4-6.35A6.8,6.8,0,0,0,145,20.73a6.15,6.15,0,0,0-1.89,4.72,6.62,6.62,0,0,0,1.94,5,7,7,0,0,0,5.12,1.85,5.49,5.49,0,0,0,4.54-2.12A7.72,7.72,0,0,0,156.25,25.28Z"/><path d="M176.85,4.9a4.79,4.79,0,0,1-1.5,3.57,5,5,0,0,1-7,0A5,5,0,0,1,166.93,5a4.81,4.81,0,0,1,1.45-3.53A4.75,4.75,0,0,1,171.87,0a5,5,0,0,1,3.53,1.41,4.75,4.75,0,0,1,1.45,3.49m-.92,7V39h-8.2V11.87Z"/><path d="M227.48,21.71a17.89,17.89,0,0,1-5.43,13.37,18.48,18.48,0,0,1-13.24,5.12A18.17,18.17,0,0,1,195.45,35a17.39,17.39,0,0,1-5.25-13,17.23,17.23,0,0,1,5.48-13.11,18.67,18.67,0,0,1,13.19-5,18.45,18.45,0,0,1,13.28,5.16,16.71,16.71,0,0,1,5.34,12.62m-8.91.18A9.34,9.34,0,0,0,215.79,15a10.07,10.07,0,0,0-13.94,0,9.81,9.81,0,0,0-2.73,7.11,9.65,9.65,0,0,0,2.69,7.06,9.26,9.26,0,0,0,7,2.74,9.49,9.49,0,0,0,7.06-2.83A10,10,0,0,0,218.57,21.88Z"/><path d="M259.64,25.32a15,15,0,0,1-3.49,10,11.84,11.84,0,0,1-9.4,4.32,12.1,12.1,0,0,1-4.28-.84,10.49,10.49,0,0,1-3.71-2.25V47.78h-8.16V11.87h8v3a11.89,11.89,0,0,1,8.69-3.49,11.07,11.07,0,0,1,9.09,4.28,14.78,14.78,0,0,1,3.22,9.7m-8.34.13a7.1,7.1,0,0,0-1.68-4.81,5.94,5.94,0,0,0-4.59-2,6.58,6.58,0,0,0-4.86,1.9,6.88,6.88,0,0,0-1.85,4.94,6.29,6.29,0,0,0,1.94,4.77,6.49,6.49,0,0,0,4.81,1.81,5.79,5.79,0,0,0,4.46-2A6.55,6.55,0,0,0,251.31,25.46Z"/><path d="M289.41,26.16v.35l0,.53v.75H270.3q1.06,4.77,6.35,4.77,3.09,0,5.87-3.75l6.4,3.75a13.79,13.79,0,0,1-5.34,5.3,15.7,15.7,0,0,1-7.32,1.76q-6.49,0-10.28-3.79t-3.79-10.37a13.75,13.75,0,0,1,3.93-10.1,13.21,13.21,0,0,1,9.93-4q6.44,0,10,4.23,3.35,4,3.35,10.59m-8.52-4.11q-1.41-3.84-4.94-3.84-3.75,0-5.34,3.84Z"/><path d="M318.66,39h-8.47V23.07q0-4.37-4.24-4.37a4.83,4.83,0,0,0-3.4,1.41,4.52,4.52,0,0,0-1.46,3.36V39H292.8V11.87H301V15.4a8.67,8.67,0,0,1,3.49-3,9.78,9.78,0,0,1,4.41-1.06,10,10,0,0,1,6.79,2.52,8.29,8.29,0,0,1,3,6.48V39"/><path d="M360.22,15.49a12.77,12.77,0,0,0-8.47-3,8.19,8.19,0,0,0-6.67,2.87,10.76,10.76,0,0,0-2.25,7.06A8.59,8.59,0,0,0,345.48,29a9.34,9.34,0,0,0,6.7,2.52,14.25,14.25,0,0,0,7.95-2.78v8.87a21.74,21.74,0,0,1-8.52,2.25A17.38,17.38,0,0,1,339,34.9a16.75,16.75,0,0,1-5.07-12.53,18.32,18.32,0,0,1,4.76-12.93A16.39,16.39,0,0,1,351.3,4.19a18.65,18.65,0,0,1,8.92,2.12v9.18"/><path d="M392.25,39H384V36.31a10.42,10.42,0,0,1-3.75,2.47,12.65,12.65,0,0,1-13.85-3.26,15.11,15.11,0,0,1-3.22-10,14.45,14.45,0,0,1,3.71-9.88,12.15,12.15,0,0,1,9.44-4.32,11.29,11.29,0,0,1,7.81,3.31V11.87h8.12V39m-7.86-13.33a6.73,6.73,0,0,0-1.8-4.76,6.06,6.06,0,0,0-4.64-1.94,6.29,6.29,0,0,0-4.63,1.81,6.52,6.52,0,0,0-1.81,4.68,7.22,7.22,0,0,0,1.63,4.81,5.66,5.66,0,0,0,4.55,2,6.55,6.55,0,0,0,6.7-6.62Z"/><path d="M437.78,39h-8.25V23.16a5.32,5.32,0,0,0-.75-3.13,3.59,3.59,0,0,0-3-1.15,3.92,3.92,0,0,0-3.35,1.63,6.1,6.1,0,0,0-1.06,3.66V39h-8.34V23.07a5.31,5.31,0,0,0-.71-3.09,3.26,3.26,0,0,0-2.82-1.1,3.81,3.81,0,0,0-3.35,1.59,5.93,5.93,0,0,0-1.06,3.66V39h-8.25V11.87H405V15.4a10,10,0,0,1,3.4-2.87,8.56,8.56,0,0,1,4.24-1.19q5.38,0,7.63,4.32a16.66,16.66,0,0,1,3.88-3.26,10.22,10.22,0,0,1,5-1.06,8.38,8.38,0,0,1,6.35,2.6,9.14,9.14,0,0,1,2.34,6.48V39"/><path d="M471.45,25.32a15,15,0,0,1-3.49,10,11.84,11.84,0,0,1-9.4,4.32,12.11,12.11,0,0,1-4.28-.84,10.52,10.52,0,0,1-3.71-2.25V47.78h-8.16V11.87h8v3a11.89,11.89,0,0,1,8.69-3.49,11.09,11.09,0,0,1,9.09,4.28,14.8,14.8,0,0,1,3.22,9.7m-8.34.13a7.1,7.1,0,0,0-1.68-4.81,5.92,5.92,0,0,0-4.59-2,6.59,6.59,0,0,0-4.86,1.9,6.88,6.88,0,0,0-1.85,4.94,6.31,6.31,0,0,0,1.94,4.77,6.5,6.5,0,0,0,4.81,1.81,5.8,5.8,0,0,0,4.46-2A6.55,6.55,0,0,0,463.11,25.46Z"/><path d="M500.21,27.93q0,5.74-3.53,8.78t-9.18,2.91q-5.82,0-9.18-3.09-3.57-3.21-3.57-8.91V11.87H483V27.4a4.66,4.66,0,0,0,1.24,3.42,4.55,4.55,0,0,0,3.4,1.26,4.68,4.68,0,0,0,3.35-1.17,4.3,4.3,0,0,0,1.24-3.29V11.87h8V27.93"/><path d="M564.69,39H537.25l14.65-16.9Q555,18.53,555,15.49a4,4,0,0,0-1.15-3,4.15,4.15,0,0,0-3-1.1q-4.15,0-4.15,5.56h-8.74q.09-6.13,3.58-9.57t9.66-3.49A12.93,12.93,0,0,1,560,7.1a10.75,10.75,0,0,1,3.84,8.38,15.09,15.09,0,0,1-3.44,9.13,36.88,36.88,0,0,1-2.69,3.07q-1.72,1.79-4.28,4.12h11.29V39"/><path d="M599,21.75q0,8.12-4.5,13.28a14.9,14.9,0,0,1-11.65,5.16,15.57,15.57,0,0,1-11.74-4.94,17.73,17.73,0,0,1-4.76-12.71Q566.37,14,571,9a15.28,15.28,0,0,1,11.91-5,15,15,0,0,1,11.61,5A18.46,18.46,0,0,1,599,21.75m-8.74.27q0-4.9-2-7.68a6.63,6.63,0,0,0-5.78-2.83,6.23,6.23,0,0,0-5.6,3q-1.81,2.74-1.81,7.72a12.82,12.82,0,0,0,2,7.63A6.78,6.78,0,0,0,583,32.61a6.25,6.25,0,0,0,5.51-2.91A14.13,14.13,0,0,0,590.28,22Z"/><polyline points="613.8 38.96 604.97 38.96 604.97 12.4 600.12 12.4 600.12 5.16 613.8 5.16 613.8 38.96"/><path d="M645.21,29.78a9,9,0,0,1-4.41,8.07,17.31,17.31,0,0,1-9.31,2.34,15.74,15.74,0,0,1-9.17-2.43,9.31,9.31,0,0,1-4.06-8.21,8.47,8.47,0,0,1,2.07-5.69,9.33,9.33,0,0,1,5.34-3v-.18a4.78,4.78,0,0,1-2.38-.92,7.77,7.77,0,0,1-3.53-6.93A7.66,7.66,0,0,1,623.81,6,15.59,15.59,0,0,1,632,4a13.38,13.38,0,0,1,7.77,2.16,7.79,7.79,0,0,1,3.66,6.8q0,5.74-5.65,7.72l0,.13a8.6,8.6,0,0,1,2.21.75,8.48,8.48,0,0,1,5.3,8.25m-8.87-.93A4.44,4.44,0,0,0,635,25.59a4.09,4.09,0,0,0-3.18-1.37,4.34,4.34,0,0,0-3.31,1.41,4.8,4.8,0,0,0-1.33,3.4,4.27,4.27,0,0,0,1.28,3.14,4.51,4.51,0,0,0,3.18,1.28A4.73,4.73,0,0,0,635,32.17,4.31,4.31,0,0,0,636.34,28.85Zm-.88-15.49a3.33,3.33,0,0,0-1.15-2.6,4,4,0,0,0-2.74-1,3.8,3.8,0,0,0-2.73,1.06,3.46,3.46,0,0,0-1.15,2.65,3.83,3.83,0,0,0,1.1,2.82,4,4,0,0,0,2.87,1.06,3.6,3.6,0,0,0,2.82-1.08A4.23,4.23,0,0,0,635.46,13.37Z"/><path d="M524.56,30.81a7.84,7.84,0,0,1-3.49,6.75,13.18,13.18,0,0,1-7.82,2.25q-7.31,0-10.44-5.65L509.17,31a4.9,4.9,0,0,0,4.33,2.38,4.76,4.76,0,0,0,2.15-.44,1.5,1.5,0,0,0,1.1-1.45c0-.65-.58-1.22-1.75-1.72l-4.28-1.28q-7-2.38-7-8.12A7.8,7.8,0,0,1,507,13.78a12.36,12.36,0,0,1,7.5-2.25A9.9,9.9,0,0,1,520,13.12a10.63,10.63,0,0,1,3.72,4.37l-6.11,2.74a3.94,3.94,0,0,0-3.79-2.12c-1.5,0-2.62.54-2.62,1.63,0,.74,1.12,1.46,3.36,2.17,1.56.5,3.16,1,4.19,1.39a14.77,14.77,0,0,1,2.41,1.21,7.31,7.31,0,0,1,3.36,6.31"/><polyline points="29.82 62.84 11.3 96.64 0.93 96.64 16.32 69.99 2.12 69.99 2.12 62.84 29.82 62.84"/><path d="M36.58,92.8a5.13,5.13,0,0,1-5.07,5.08,5.07,5.07,0,1,1,3.57-8.65,4.78,4.78,0,0,1,1.5,3.57"/><polyline points="51 96.64 42.17 96.64 42.17 70.08 37.32 70.08 37.32 62.84 51 62.84 51 96.64"/><path d="M82.54,89.32H78v7.33H69.57V89.32h-15V82.65L69.22,62.84H78v20h4.5v6.44M69.79,83V72.46L61.94,83Z"/><path d="M141.17,96.64h-8.25V94a10.43,10.43,0,0,1-3.75,2.47,11.67,11.67,0,0,1-4.37.84,11.81,11.81,0,0,1-9.49-4.1,15.12,15.12,0,0,1-3.22-10,14.44,14.44,0,0,1,3.71-9.88A12.14,12.14,0,0,1,125.25,69a11.27,11.27,0,0,1,7.81,3.31V69.55h8.12V96.64m-7.85-13.33a6.75,6.75,0,0,0-1.81-4.77,6.07,6.07,0,0,0-4.63-1.94,6.28,6.28,0,0,0-4.63,1.81,6.52,6.52,0,0,0-1.81,4.68,7.2,7.2,0,0,0,1.63,4.81,5.65,5.65,0,0,0,4.54,2,6.56,6.56,0,0,0,6.71-6.62Z"/><polyline points="160.26 77.05 155.89 77.05 155.89 96.64 147.64 96.64 147.64 77 144.95 77 144.95 69.55 147.64 69.55 147.64 62.84 155.89 62.84 155.89 69.55 160.26 69.55 160.26 77.05"/><polyline points="197.02 96.64 188.19 96.64 188.19 70.08 183.34 70.08 183.34 62.84 197.02 62.84 197.02 96.64"/><path d="M226.4,85.3a11.51,11.51,0,0,1-4.19,9.18,14.53,14.53,0,0,1-9.71,3.4,23,23,0,0,1-12-3.44l1.32-7.37a15.86,15.86,0,0,0,4.46,2.39,14.57,14.57,0,0,0,2.54.77,12.21,12.21,0,0,0,2.36.24,7.28,7.28,0,0,0,4.41-1.24,4.78,4.78,0,0,0,1.94-4.06A4.38,4.38,0,0,0,214.75,81a11.65,11.65,0,0,0-5.25-1.06,22.43,22.43,0,0,0-6.71,1.28L206,62.84H223.8V69.9h-12l-.57,4.24,1.39-.16c.43,0,.85-.06,1.26-.06a13.07,13.07,0,0,1,8.78,3,10.49,10.49,0,0,1,3.71,8.38"/><path d="M282.1,85.61q0,5.74-3.53,8.78t-9.17,2.91q-5.83,0-9.18-3.09-3.57-3.22-3.57-8.91V69.55h8.21V85.08a4.65,4.65,0,0,0,1.23,3.42,4.53,4.53,0,0,0,3.4,1.26,4.67,4.67,0,0,0,3.35-1.17,4.3,4.3,0,0,0,1.24-3.29V69.55h8V85.61"/><path d="M312.25,96.64h-8.47V80.76q0-4.37-4.24-4.37a4.81,4.81,0,0,0-3.39,1.41,4.51,4.51,0,0,0-1.46,3.35V96.64h-8.3V69.55h8.21v3.53a8.63,8.63,0,0,1,3.49-3A9.76,9.76,0,0,1,302.5,69a10,10,0,0,1,6.8,2.52,8.3,8.3,0,0,1,3,6.48V96.64"/><path d="M355.29,73.83a14.68,14.68,0,0,1-1.67,6.35c-.24.44-.64,1.14-1.19,2.1s-1.31,2.17-2.25,3.64l-6.8,10.72H332.7l9.18-12.48a12.46,12.46,0,0,1-4.63,1.28,9.59,9.59,0,0,1-7.59-3.27,11.17,11.17,0,0,1-2.83-7.85,11.56,11.56,0,0,1,4.37-9.49,15.71,15.71,0,0,1,10.15-3.22,15.25,15.25,0,0,1,9.84,3,11.14,11.14,0,0,1,4.1,9.18m-8.78.09a5.08,5.08,0,0,0-1.59-3.79,5.34,5.34,0,0,0-3.88-1.5,5.45,5.45,0,0,0-4,1.5,5.43,5.43,0,0,0,0,7.68,5.65,5.65,0,0,0,4,1.46,5.22,5.22,0,0,0,3.84-1.54A4.94,4.94,0,0,0,346.51,73.92Z"/><path d="M368.51,92.8a5.12,5.12,0,1,1-1.5-3.57,4.78,4.78,0,0,1,1.5,3.57"/><path d="M397.65,86.85A9.6,9.6,0,0,1,393.37,95a15,15,0,0,1-9.09,2.82,14.75,14.75,0,0,1-9.67-3.18,11.05,11.05,0,0,1-4.19-9h8.73q0,5,4.86,5a4.63,4.63,0,0,0,3.36-1.19,4.39,4.39,0,0,0,1.23-3.31q0-4.81-6.22-4.81h-1.67V75.64h2.56q4.19,0,4.19-3.89a3.62,3.62,0,0,0-3.7-3.71,3.63,3.63,0,0,0-2.83,1.24,4.57,4.57,0,0,0-1.06,3h-7.94a9.71,9.71,0,0,1,3.62-7.77,12.32,12.32,0,0,1,8.21-2.91,13.34,13.34,0,0,1,8,2.43,8.43,8.43,0,0,1,3.79,7.15,7,7,0,0,1-3.93,6.66q6,2.34,6,9"/><path d="M431.71,79.43q0,8.12-4.5,13.28a14.91,14.91,0,0,1-11.65,5.16,15.56,15.56,0,0,1-11.74-4.94,17.73,17.73,0,0,1-4.77-12.71q0-8.56,4.59-13.59a15.29,15.29,0,0,1,11.91-5,15,15,0,0,1,11.6,5,18.47,18.47,0,0,1,4.54,12.8M423,79.7q0-4.89-2-7.68a6.62,6.62,0,0,0-5.78-2.82,6.23,6.23,0,0,0-5.6,3q-1.82,2.74-1.81,7.72a12.83,12.83,0,0,0,2,7.63,6.77,6.77,0,0,0,5.83,2.79,6.25,6.25,0,0,0,5.51-2.91A14.12,14.12,0,0,0,423,79.7Z"/><polyline points="467.81 96.64 458.98 96.64 458.98 70.08 454.13 70.08 454.13 62.84 467.81 62.84 467.81 96.64"/><path d="M500.54,85.08a11.8,11.8,0,0,1-4.28,9.53,17.33,17.33,0,0,1-20.12,0,11.54,11.54,0,0,1-4.24-9.4,14.67,14.67,0,0,1,1.46-6.4c.35-.67.83-1.48,1.43-2.4s1.34-1.95,2.23-3.06l8.12-10.5h11.12l-10.1,11.39a11.86,11.86,0,0,1,3.57-.62,10.07,10.07,0,0,1,7.72,3.49,11.19,11.19,0,0,1,3.09,8m-8.91.18A5,5,0,0,0,490,81.42a5.64,5.64,0,0,0-4-1.46,5.56,5.56,0,0,0-3.88,1.54,5.1,5.1,0,0,0-1.59,3.8,5,5,0,0,0,1.59,3.8,5.35,5.35,0,0,0,3.88,1.5,5.48,5.48,0,0,0,4-1.5A5,5,0,0,0,491.63,85.26Z"/><path d="M513.75,92.8a5.12,5.12,0,1,1-1.5-3.57,4.8,4.8,0,0,1,1.5,3.57"/><path d="M368.51,74.79a5.12,5.12,0,1,1-1.5-3.58,4.79,4.79,0,0,1,1.5,3.58"/><path d="M513.75,74.79a5.12,5.12,0,1,1-1.5-3.58,4.81,4.81,0,0,1,1.5,3.58"/><path d="M542.88,86.85A9.6,9.6,0,0,1,538.6,95a15,15,0,0,1-9.09,2.82,14.76,14.76,0,0,1-9.67-3.18,11.05,11.05,0,0,1-4.19-9h8.74q0,5,4.85,5a4.62,4.62,0,0,0,3.35-1.19,4.38,4.38,0,0,0,1.24-3.31q0-4.81-6.22-4.81h-1.67V75.64h2.56q4.19,0,4.19-3.89a3.75,3.75,0,0,0-6.53-2.47,4.55,4.55,0,0,0-1.06,3h-7.94a9.71,9.71,0,0,1,3.62-7.77A12.32,12.32,0,0,1,529,61.61,13.34,13.34,0,0,1,537,64a8.43,8.43,0,0,1,3.79,7.15,7,7,0,0,1-3.92,6.66q6,2.34,6,9"/><path d="M576.94,79.43q0,8.12-4.49,13.28a14.92,14.92,0,0,1-11.65,5.16,15.58,15.58,0,0,1-11.74-4.94,17.76,17.76,0,0,1-4.76-12.71q0-8.56,4.59-13.59a15.3,15.3,0,0,1,11.91-5,15,15,0,0,1,11.61,5,18.48,18.48,0,0,1,4.54,12.8m-8.73.26q0-4.89-2-7.68a6.62,6.62,0,0,0-5.78-2.82,6.24,6.24,0,0,0-5.61,3Q553,74.89,553,79.87a12.83,12.83,0,0,0,2,7.63,6.77,6.77,0,0,0,5.83,2.79,6.26,6.26,0,0,0,5.52-2.91A14.15,14.15,0,0,0,568.21,79.7Z"/><path d="M110.09,88.3A7.85,7.85,0,0,1,106.59,95a13.18,13.18,0,0,1-7.82,2.25q-7.31,0-10.44-5.65l6.36-3.18A4.92,4.92,0,0,0,99,90.85a4.78,4.78,0,0,0,2.14-.44,1.51,1.51,0,0,0,1.1-1.46c0-.65-.58-1.22-1.75-1.72L96.25,86q-7-2.39-7-8.12a7.8,7.8,0,0,1,3.31-6.58,12.36,12.36,0,0,1,7.5-2.25,9.9,9.9,0,0,1,5.52,1.59A10.62,10.62,0,0,1,109.31,75l-6.11,2.73a3.94,3.94,0,0,0-3.79-2.12c-1.5,0-2.63.54-2.63,1.63q0,1.11,3.36,2.16c1.56.5,3.15,1,4.19,1.39A15.23,15.23,0,0,1,106.73,82a7.32,7.32,0,0,1,3.36,6.31"/><path d="M253.77,88.3A7.85,7.85,0,0,1,250.28,95a13.18,13.18,0,0,1-7.82,2.25q-7.31,0-10.44-5.65l6.36-3.18a4.92,4.92,0,0,0,4.33,2.38,4.78,4.78,0,0,0,2.14-.44A1.51,1.51,0,0,0,246,89c0-.65-.58-1.22-1.75-1.72L239.93,86q-7-2.39-7-8.12a7.8,7.8,0,0,1,3.31-6.58,12.35,12.35,0,0,1,7.5-2.25,9.9,9.9,0,0,1,5.52,1.59A10.62,10.62,0,0,1,253,75l-6.11,2.73a3.94,3.94,0,0,0-3.79-2.12c-1.5,0-2.62.54-2.62,1.63q0,1.11,3.36,2.16c1.56.5,3.15,1,4.18,1.39A15,15,0,0,1,250.41,82a7.32,7.32,0,0,1,3.36,6.31"/><polyline points="178.44 62.87 170.58 97.53 163.98 97.53 171.83 62.87 178.44 62.87"/><polyline points="437.26 71.66 437.26 79.59 444.33 83.5 437.26 87.38 437.26 95.32 451.62 86.63 451.62 80.34 437.26 71.66"/></svg>