<svg xmlns="http://www.w3.org/2000/svg" viewBox="0 0 480 573"><defs><style>.cls-1{fill:#FF00B8;}</style></defs><title>多摩美術大学オープンキャンパス</title><g><polygon id="surface" class="cls-1" points="365.6,254.3 360.3,246.8 365.1,238.9 409.6,166 318.3,188.9 289.8,196 302.3,169.4 356,54.4 287,106.6 265.9,122.6 264.6,96.2 262.1,48 221,94.6 214,102.6 204.4,98 125.5,59.9 138.1,125.5 140.7,139.1 127,141.8 51.2,156.8 128.6,242 138.9,253.4 126.6,262.6 65.9,308.1 137.7,334.4 155.5,341 144,356.1 79.1,441.6 170.1,434.9 181.8,434 184.7,445.5 204.6,525.5 279.6,440.1 291,427.2 301.3,440.9 355.2,512.3 361.4,347.4 362,330.5 378.5,334.3 430.7,346.4"></polygon><path id="line" d="M377,246.2l62.4-102.1l-124.5,31.2L392.7,9L278.6,95.5l-4.2-82.6l-63.9,72.5L106.6,35.1l17.7,93L24.2,147.9l94,103.5l-81.3,60.9l95.9,35.3L49.1,457.8l122-9l26.3,106l92.7-105.4l77.5,102.7l7.7-204.1l87.9,20.3L377,246.2z M355.2,512.3L301.4,441L291,427.2l-11.3,12.9l-75.1,85.4l-19.9-80l-2.8-11.5l-11.8,0.9l-91,6.7l65-85.5l11.4-15.1l-17.8-6.5l-71.8-26.4l60.7-45.5l12.3-9.2L128.6,242l-77.3-85.2l75.8-15l13.6-2.7l-2.6-13.7l-12.5-65.6L204.4,98l9.6,4.6l7-8L262.1,48l2.4,48.2l1.3,26.4l21.1-16l69-52.3l-53.8,115L289.8,196l28.5-7.1l91.3-22.9L365,238.9l-4.8,7.9l5.3,7.5l65.1,92l-52.1-12.1l-16.5-3.8l-0.6,16.9L355.2,512.3z"></path></g></svg>
