<svg xmlns="http://www.w3.org/2000/svg" viewBox="0 0 1000 1203.723"><defs><style>.cls-2{fill:#FF00B8;}</style></defs><title>多摩美術大学オープンキャンパス</title><g><polygon id="surface_pc" class="cls-2" points="893.901,538.156 726.95,452.305 702.695,439.858 716.099,416.099 810.425,248.652 663.262,256.702 630.177,258.511 635.993,225.887 660.532,88.688 510.638,230.355 483.014,256.454 468.369,221.383 404.965,69.113 311.702,226.773 301.135,244.61 281.348,238.511 143.298,195.851 243.83,332.305 258.085,351.667 240.035,367.553 112.73,479.716 254.539,628.582 272.128,647.021 254.184,665.142 134.007,786.525 303.83,812.801 339.858,818.369 323.121,850.78 241.879,1008.262 425.284,917.66 446.418,907.234 459.043,927.128 587.128,1128.582 631.844,912.411 637.801,883.582 665.745,892.801 855.709,955.319 730.887,725.355 721.454,707.979 735.532,694.113"></polygon><path id="line_pc" d="M938.156,531.418l-199.22-102.447l58.936-104.574l58.901-104.574l-194.929,10.674L700.39,14.929l0,0L636.418,75.39L492.624,211.277L436.915,77.518l-27.837-66.879l-91.596,154.823l-28.369,47.943L89.22,151.702l-14.326-4.433l0,0l0,0l147.801,200.603L74.894,478.05l0,0l0,0l160.674,168.617L79.184,804.61l220.638,34.149l-117.801,228.369l0,0l0,0l127.447-62.943l127.447-62.943l162.801,256.099l57.837-279.574l252.766,83.227L753.936,712.872L938.156,531.418L938.156,531.418zM730.887,725.355l124.823,230l-189.964-62.553l-27.943-9.184l-5.957,28.794l-44.716,216.206L459.043,927.128l-12.624-19.894l-21.135,10.426l-183.404,90.603l81.241-157.482l16.702-32.376l-36.028-5.567l-169.787-26.312L254.22,665.142l17.943-18.121l-17.589-18.44l-141.844-148.83l127.34-112.163l18.05-15.887l-14.255-19.362L143.298,195.851l138.085,42.66l19.787,6.099l10.532-17.837l93.262-157.66l63.404,152.27l14.61,35.106l27.624-26.099L660.496,88.723l-24.504,137.163l-5.851,32.624l33.121-1.809l147.163-8.05l-94.326,167.447l-13.369,23.759l24.255,12.482l166.95,85.851L735.567,694.149l-14.078,13.865L730.887,725.355z"></path></g> </svg>
